<svg width="396" height="345" viewBox="0 0 396 345" fill="none" xmlns="http://www.w3.org/2000/svg">
<path d="M138.115 65.3893L369.792 115.367L82.0304 327.827L51.3673 170.849L138.115 65.3893Z" fill="black"/>
<path d="M46.1257 207.605L272.561 38.7492L358.261 321.662L55.0364 303.29L46.1257 207.605Z" fill="#8964FE"/>
<path d="M247.119 88.914L252.884 65.2594L246.133 76.1158L247.258 63.5157L241.321 75.4597L240.795 64.3171L237.327 75.8868L235.629 64.2312L233.962 78.0488L226.619 72.8419L235.889 84.7573L236.318 89.4314L247.119 88.914Z" fill="#F6F4E7"/>
<path d="M165.633 141.347C176.489 141.347 185.289 133.954 185.289 124.834C185.289 115.714 176.489 108.322 165.633 108.322C154.778 108.322 145.977 115.714 145.977 124.834C145.977 133.954 154.778 141.347 165.633 141.347Z" fill="#FD612E"/>
<path d="M159.178 163.687L144.25 164.217L147.304 146.104L148.077 141.527L154.186 141.188L154.558 142.868L159.178 163.687Z" fill="#F6F4E7"/>
<path d="M154.558 142.868L147.304 146.104L148.077 141.527L154.186 141.188L154.558 142.868Z" fill="black"/>
<path d="M152.603 142.289C159.455 142.289 165.01 137.622 165.01 131.866C165.01 126.11 159.455 121.444 152.603 121.444C145.751 121.444 140.196 126.11 140.196 131.866C140.196 137.622 145.751 142.289 152.603 142.289Z" fill="#F6F4E7"/>
<path d="M192.905 212.843L204.982 316.477L99.7679 315.614L102.389 168.85L133.243 164.244L131.815 156.318L145.977 156.939L149.647 161.782L157.75 160.574C158.531 160.458 159.309 160.371 160.083 160.314L161.61 156.318L174.691 153.874L174.14 162.482C178.123 164.108 181.568 166.531 184.173 169.539L218.424 146.862L228.621 87.1857L249.498 87.4587L250.285 169.939L192.905 212.843Z" fill="#FCC75F"/>
<path d="M101.503 211.784L128.062 277.466L198.902 260.018L100.114 299.205L101.503 211.784Z" fill="black"/>
<path d="M140.998 194.825L141.066 195.045L151.641 228.9L172.031 226.775C172.031 226.775 154.812 222.368 140.998 194.825Z" fill="black"/>
<path d="M68.6645 168.207C70.2566 168.207 71.5473 167.122 71.5473 165.785C71.5473 164.447 70.2566 163.363 68.6645 163.363C67.0723 163.363 65.7816 164.447 65.7816 165.785C65.7816 167.122 67.0723 168.207 68.6645 168.207Z" fill="black"/>
<path d="M202.848 66.9304C204.441 66.9304 205.731 65.8462 205.731 64.5086C205.731 63.1711 204.441 62.0868 202.848 62.0868C201.256 62.0868 199.966 63.1711 199.966 64.5086C199.966 65.8462 201.256 66.9304 202.848 66.9304Z" fill="black"/>
<path d="M272.823 127.696C274.415 127.696 275.706 126.612 275.706 125.274C275.706 123.937 274.415 122.853 272.823 122.853C271.231 122.853 269.94 123.937 269.94 125.274C269.94 126.612 271.231 127.696 272.823 127.696Z" fill="black"/>
<path d="M224.863 315.278C226.455 315.278 227.746 314.193 227.746 312.856C227.746 311.518 226.455 310.434 224.863 310.434C223.271 310.434 221.98 311.518 221.98 312.856C221.98 314.193 223.271 315.278 224.863 315.278Z" fill="black"/>
<path d="M101.424 84.7639C103.016 84.7639 104.307 83.6796 104.307 82.3421C104.307 81.0045 103.016 79.9202 101.424 79.9202C99.8321 79.9202 98.5414 81.0045 98.5414 82.3421C98.5414 83.6796 99.8321 84.7639 101.424 84.7639Z" fill="black"/>
<path d="M343.584 226.11C345.177 226.11 346.467 225.026 346.467 223.689C346.467 222.351 345.177 221.267 343.584 221.267C341.992 221.267 340.702 222.351 340.702 223.689C340.702 225.026 341.992 226.11 343.584 226.11Z" fill="black"/>
<path d="M117.149 59.2246C117.149 59.2246 40.36 81.9017 62.6367 113.165C84.9133 144.429 52.1535 152.135 52.1535 152.135" stroke="#FD612E" stroke-width="4" stroke-miterlimit="10"/>
<path d="M324.06 202.222L362.323 170.959L385.386 198.48L324.06 202.222Z" fill="#8964FE"/>
<path d="M155.15 47.776L142.57 89.8277L184.503 56.5826L155.15 47.776Z" fill="#FCC75F"/>
<path d="M79.1476 221.848H20.9138V262.438H79.1476V221.848Z" fill="black"/>
<path d="M78.4138 220.386H20.18V260.976H78.4138V220.386Z" fill="#FD612E"/>
<path d="M215.42 299.225L230.736 280.159L244.946 290.39L264.321 276.749L276.5 291.786L255.463 307.131L215.42 299.225Z" stroke="white" stroke-width="4" stroke-miterlimit="10"/>
<path d="M91.0721 134.411C93.1688 134.411 102.079 151.364 102.079 151.364C102.079 151.364 69.8438 193.416 71.4163 190.333C72.9887 187.251 91.0721 134.411 91.0721 134.411Z" stroke="white" stroke-width="4" stroke-miterlimit="10"/>
<path d="M61.7194 283.904L89.4997 275.097L94.7412 287.647L61.1952 299.756L61.7194 283.904Z" stroke="white" stroke-width="4" stroke-miterlimit="10"/>
<path d="M335.887 119.11C335.887 119.11 307.57 156.844 342.536 145.197C377.503 133.55 364.409 121.406 354.254 125.18C344.098 128.953 335.698 164.884 359.136 162.095" stroke="#FD612E" stroke-width="4" stroke-miterlimit="10"/>
<path d="M267.844 83.0026C269.436 83.0026 270.727 81.9183 270.727 80.5807C270.727 79.2432 269.436 78.1589 267.844 78.1589C266.252 78.1589 264.961 79.2432 264.961 80.5807C264.961 81.9183 266.252 83.0026 267.844 83.0026Z" fill="black"/>
<path d="M217.787 276.528C219.379 276.528 220.67 275.444 220.67 274.107C220.67 272.769 219.379 271.685 217.787 271.685C216.195 271.685 214.904 272.769 214.904 274.107C214.904 275.444 216.195 276.528 217.787 276.528Z" fill="black"/>
<path d="M315.018 145.53V226.991H160.13V216.203H218.573V145.53H315.018Z" fill="black"/>
<path d="M318.425 145.53H227.222V226.991H318.425V145.53Z" fill="#FD612E"/>
<path d="M289.596 219.505L270.203 224.569L287.238 216.203L264.699 222.368L275.182 214.882L250.376 222.625L246.878 212.46L241.678 225.029L233.732 226.047L233.873 226.361C236.287 231.615 238.91 236.795 241.502 241.993L256.108 237.59L288.548 224.349L269.416 228.532L289.596 219.505Z" fill="#F6F4E7"/>
<path d="M114.882 160.043C107.895 161.104 99.7364 166.829 96.5836 169.851C94.0729 172.258 91.9186 174.99 90.8179 178.05C87.8119 186.366 95.4436 197.449 98.6331 205.162C98.6331 208.004 101.516 212.163 102.648 214.875L107.166 225.802C109.916 232.449 112.591 239.113 115.309 245.771C116.064 247.623 127.933 277.418 128.198 277.352L252.947 246.61L236.698 224.64L153.468 227.786C150.375 227.905 144.636 206.324 143.679 203.838C139.669 193.417 135.209 183.125 130.297 172.962C127.674 167.562 123.685 158.707 114.882 160.043Z" fill="#FCC75F"/>
<path d="M272.954 196.388C276.79 196.388 279.899 191.213 279.899 184.829C279.899 178.446 276.79 173.271 272.954 173.271C269.119 173.271 266.009 178.446 266.009 184.829C266.009 191.213 269.119 196.388 272.954 196.388Z" fill="#FCC75F"/>
<path d="M163.348 174.97C166.196 177.364 168.174 180.389 169.051 183.691C169.929 186.994 169.67 190.438 168.304 193.622C166.939 196.805 164.523 199.597 161.34 201.67C158.156 203.744 154.336 205.014 150.326 205.331C146.315 205.649 142.28 205.002 138.692 203.465C135.103 201.928 132.109 199.565 130.059 196.652C128.009 193.739 126.988 190.396 127.115 187.014C127.242 183.631 128.512 180.349 130.777 177.551C126.966 176.172 123.72 173.886 121.438 170.975C119.156 168.065 117.938 164.656 117.936 161.171C117.934 157.685 119.147 154.275 121.425 151.362C123.703 148.449 126.947 146.161 130.756 144.779C127.042 144.188 123.582 142.775 120.736 140.686C117.889 138.596 115.758 135.906 114.564 132.893C113.369 129.88 113.153 126.654 113.94 123.548C114.726 120.441 116.485 117.568 119.036 115.224C118.624 114.94 118.229 114.636 117.843 114.312C116.072 112.82 114.714 111.018 113.866 109.034C113.019 107.05 112.703 104.934 112.942 102.836C113.181 100.738 113.967 98.7099 115.246 96.8967C116.525 95.0835 118.265 93.5298 120.341 92.3464C122.417 91.163 124.778 90.3792 127.256 90.0508C129.735 89.7224 132.269 89.8575 134.677 90.4465C137.086 91.0355 139.311 92.0639 141.192 93.4583C143.073 94.8527 144.565 96.5788 145.561 98.5132C147.838 97.4489 150.369 96.8237 152.969 96.683C155.57 96.5424 158.175 96.8897 160.596 97.6999C163.017 98.5101 165.193 99.7628 166.966 101.367C168.739 102.972 170.065 104.887 170.847 106.976C171.629 109.064 171.849 111.272 171.489 113.44C171.129 115.609 170.199 117.682 168.767 119.511C167.334 121.34 165.435 122.878 163.208 124.014C160.98 125.15 158.479 125.855 155.887 126.078C156.175 129.755 155.102 133.417 152.815 136.561C150.527 139.705 147.137 142.177 143.11 143.638C146.572 144.188 149.817 145.452 152.552 147.318C155.287 149.184 157.427 151.592 158.777 154.326C160.128 157.06 160.647 160.033 160.288 162.977C159.93 165.922 158.704 168.745 156.723 171.192C159.198 172.085 161.446 173.368 163.348 174.97Z" fill="#FD612E"/>
<path d="M346.991 245.406H288.758V285.996H346.991V245.406Z" fill="black"/>
<path d="M346.258 243.944H288.024V284.534H346.258V243.944Z" fill="#FD612E"/>
<path d="M182.013 142.007H170.482C167.949 142.007 165.895 143.732 165.895 145.86C165.895 147.988 167.949 149.713 170.482 149.713H182.013C184.546 149.713 186.6 147.988 186.6 145.86C186.6 143.732 184.546 142.007 182.013 142.007Z" fill="black"/>
<path d="M185.289 147.071C185.289 147.071 194.808 133.806 165.151 131.082" stroke="black" stroke-width="4" stroke-miterlimit="10"/>
<path d="M170.102 104.872C161.702 102.65 141.818 120.882 139.656 122.897C141.836 125.211 142.952 128.107 142.8 131.055C142.649 134.004 141.24 136.808 138.831 138.956C136.423 141.105 133.175 142.453 129.68 142.757C126.186 143.06 122.678 142.297 119.798 140.608C116.917 138.918 114.856 136.415 113.991 133.555C113.125 130.695 113.513 127.668 115.084 125.028C116.654 122.389 119.302 120.311 122.545 119.176C125.787 118.04 129.408 117.922 132.745 118.843L131.988 118.368C131.988 118.368 139.95 98.6344 154.364 95.9924C168.778 93.3504 170.102 104.872 170.102 104.872Z" fill="black"/>
<path d="M124.749 142.888C132.855 142.888 139.426 137.368 139.426 130.558C139.426 123.749 132.855 118.229 124.749 118.229C116.644 118.229 110.073 123.749 110.073 130.558C110.073 137.368 116.644 142.888 124.749 142.888Z" fill="#FCC75F"/>
</svg>
